<?xml version='1.0' encoding='utf-8'?>
<svg xmlns="http://www.w3.org/2000/svg" width="1031.9mm" height="667.64mm" version="1.1" viewBox="0 0 1031.9 667.64"> <g transform="translate(418.76 177.34)" fill-rule="evenodd" stroke-width="0"> <text x="-229.85179" y="-111.18412" fill="#000000" font-family="Kalpurush" font-size="14.111px" stroke="#000000" stroke-linecap="round" stroke-linejoin="round" style="line-height:124%"><tspan x="-229.85179" y="-111.18412" stroke-width="0"/></text> <g> <path d="m603.46 468.69c-1.1739 1.8851-55.661-29.633-151.47-87.622-95.813-57.989-225.1-137.7-359.43-221.59-134.33-83.893-262.68-165.1-356.84-225.75-94.153-60.655-146.39-95.789-145.21-97.675 1.1739-1.8851 55.66 29.633 151.47 87.622 95.813 57.989 225.1 137.7 359.43 221.59 134.33 83.894 262.68 165.1 356.84 225.75 94.153 60.655 146.39 95.789 145.21 97.674z" opacity=".98"/> <path d="m602.69-169.86c4e-3 2.2208-53.311 4.4496-148.22 6.1962-94.906 1.7466-223.63 2.8679-357.85 3.1172-134.22 0.24932-262.95-0.39377-357.86-1.7878-94.912-1.394-148.23-3.4248-148.24-5.6456-4e-3 -2.2208 53.311-4.4496 148.22-6.1962 94.906-1.7466 223.63-2.8679 357.85-3.1172 134.22-0.24932 262.95 0.39377 357.86 1.7878 94.912 1.394 148.23 3.4248 148.24 5.6456z" opacity=".98"/> <path d="m601.86 477.78c0.0151 2.2207-53.216 4.715-147.98 6.9341-94.767 2.2191-223.31 3.9814-357.34 4.899-134.04 0.91763-262.59 0.91549-357.38-6e-3 -94.789-0.92143-148.05-2.6866-148.06-4.9074-0.0151-2.2207 53.216-4.715 147.98-6.9341 94.768-2.2191 223.31-3.9814 357.35-4.899 134.04-0.91763 262.59-0.91549 357.38 6e-3 94.789 0.92142 148.05 2.6867 148.06 4.9074z" opacity=".98"/> <path d="m605.54 461.21c-2.2208-3e-3 -4.4405-33.137-6.1708-92.114-1.7304-58.977-2.8296-138.96-3.0559-222.37-0.22628-83.403 0.43889-163.39 1.8492-222.36 1.4102-58.973 3.4502-92.101 5.6709-92.098 2.2208 3e-3 4.4405 33.137 6.1708 92.114 1.7304 58.977 2.8296 138.96 3.0559 222.37 0.22629 83.403-0.43889 163.39-1.8492 222.36-1.4102 58.973-3.4502 92.101-5.6709 92.098z" opacity=".98"/> <path d="m-412.6-167.84c2.2208-9e-3 4.6252 33.265 6.6843 92.503 2.0592 59.238 3.6045 139.59 4.2959 223.37 0.69137 83.784 0.47224 164.14-0.60921 223.39-1.0814 59.251-2.9365 92.543-5.1572 92.553-2.2208 9e-3 -4.6252-33.265-6.6843-92.502-2.0592-59.238-3.6045-139.59-4.2959-223.37-0.69137-83.784-0.47224-164.14 0.60921-223.39 1.0813-59.251 2.9365-92.543 5.1572-92.553z" opacity=".98"/> <path d="m-411.56 472.15c-1.1929-1.8733 50.809-37.413 144.57-98.801 93.757-61.388 221.59-143.6 355.37-228.54 133.78-84.942 262.56-165.66 358.01-224.4 95.444-58.739 149.73-90.686 150.93-88.813 1.1929 1.8733-50.809 37.413-144.57 98.801-93.757 61.388-221.59 143.6-355.37 228.54-133.79 84.942-262.56 165.66-358.01 224.4-95.444 58.739-149.73 90.686-150.93 88.812z" opacity=".98"/> <path d="m-151.64-2.8795c-1.5938-1.5465 7.0924-15.889 30.848-32.802 6.1252-4.3608 13.12-8.6872 20.969-12.676 18.953-9.5873 42.147-16.258 64.439-24.89l6e-6 -3e-6c4.2987-1.6652 8.588-3.4336 12.865-5.3067 22.314-9.7734 42.083-21.429 59.422-33.707 10.599-7.5058 19.875-14.948 27.953-21.867 21.06-18.039 31.831-29.786 33.576-28.412 1.7444 1.3744-5.7351 15.934-25.425 37.002-7.5417 8.0698-16.615 16.651-27.259 25.162-17.393 13.908-38.06 26.88-61.639 37.199-4.5288 1.9819-9.0832 3.83-13.655 5.5445l-6e-6 2e-6c-23.683 8.8846-46.342 14.345-64.461 21.996-7.5094 3.1501-14.346 6.5674-20.502 9.9923-23.876 13.284-35.538 24.311-37.132 22.764z" opacity=".98"/> <path d="m99.171-161.96c-1.7444 1.3744 5.7351 15.934 25.425 37.002 7.5417 8.0698 16.615 16.651 27.259 25.161 17.393 13.908 38.06 26.88 61.639 37.199 4.5288 1.9819 9.0832 3.83 13.655 5.5445v2e-6c23.683 8.8846 46.342 14.345 64.461 21.996 7.5093 3.1501 14.346 6.5674 20.502 9.9923 23.876 13.284 35.538 24.311 37.132 22.764 1.5938-1.5465-7.0923-15.889-30.848-32.802-6.1253-4.3608-13.12-8.6872-20.969-12.676-18.953-9.5873-42.147-16.258-64.439-24.89v-2e-6c-4.2987-1.6652-8.588-3.4336-12.865-5.3067-22.314-9.7734-42.083-21.429-59.422-33.707-10.599-7.5059-19.876-14.948-27.953-21.867-21.06-18.039-31.831-29.786-33.576-28.412z" opacity=".98"/> <path d="m-151.94-3.7704c0.71187 2.1036-14.118 8.3687-37.46 23.286-5.6917 3.6374-11.716 7.7382-17.933 12.381-16.53 12.318-30.558 25.475-48.889 42.573 0 1e-6 -1e-5 4e-6 -1e-5 4e-6 -4.4054 4.1223-8.9288 8.3406-13.512 12.517-12.322 11.227-24.433 21.555-37.397 30.734-18.684 13.198-37.114 22.42-53.262 28.601-27.043 10.352-43.495 11.482-44.054 9.333-0.55906-2.1492 14.611-7.431 39.287-20.173 14.783-7.6337 31.512-17.493 48.706-30.629 12.002-9.1492 23.287-19.178 35.502-30.314 4.5331-4.1327 9.0423-8.2759 13.541-12.36 0-1e-6 1e-5 -2e-6 1e-5 -3e-6 18.21-16.587 34.368-30.352 52.276-41.767 6.9224-4.4011 13.645-8.1263 19.993-11.252 26.055-12.831 42.489-15.032 43.201-12.929z" opacity=".98"/> <path d="m-148.58 313.78c0.5579-2.1495-14.611-7.4311-39.287-20.173-14.783-7.6336-31.512-17.493-48.706-30.629-12.002-9.1492-23.287-19.178-35.502-30.314-4.5331-4.1327-9.0423-8.2759-13.541-12.36l-1e-5 -1e-5c-18.21-16.587-34.368-30.352-52.276-41.767-6.9224-4.4011-13.645-8.1263-19.993-11.252-26.055-12.831-42.489-15.032-43.201-12.929-0.71187 2.1036 14.118 8.3687 37.46 23.286 5.6917 3.6374 11.716 7.7382 17.933 12.381 16.53 12.318 30.558 25.475 48.889 42.573 0 0 0 1e-5 1e-5 1e-5 4.4054 4.1223 8.9289 8.3406 13.512 12.517 12.322 11.227 24.433 21.555 37.397 30.733 18.684 13.198 37.114 22.42 53.262 28.601 27.043 10.351 43.495 11.482 44.054 9.333z" opacity=".98"/> <g transform="matrix(1 0 0 -1 -2.3802 313.02)"> <path d="m-151.64-2.8795c-1.5938-1.5465 7.0924-15.889 30.848-32.802 6.1252-4.3608 13.12-8.6872 20.969-12.676 18.953-9.5873 42.147-16.258 64.439-24.89l6e-6 -3e-6c4.2987-1.6652 8.588-3.4336 12.865-5.3067 22.314-9.7734 42.083-21.429 59.422-33.707 10.599-7.5058 19.875-14.948 27.953-21.867 21.06-18.039 31.831-29.786 33.576-28.412 1.7444 1.3744-5.7351 15.934-25.425 37.002-7.5417 8.0698-16.615 16.651-27.259 25.162-17.393 13.908-38.06 26.88-61.639 37.199-4.5288 1.9819-9.0832 3.83-13.655 5.5445l-6e-6 2e-6c-23.683 8.8846-46.342 14.345-64.461 21.996-7.5094 3.1501-14.346 6.5674-20.502 9.9923-23.876 13.284-35.538 24.311-37.132 22.764z" opacity=".98"/> <path d="m99.171-161.96c-1.7444 1.3744 5.7351 15.934 25.425 37.002 7.5417 8.0698 16.615 16.651 27.259 25.161 17.393 13.908 38.06 26.88 61.639 37.199 4.5288 1.9819 9.0832 3.83 13.655 5.5445v2e-6c23.683 8.8846 46.342 14.345 64.461 21.996 7.5093 3.1501 14.346 6.5674 20.502 9.9923 23.876 13.284 35.538 24.311 37.132 22.764 1.5938-1.5465-7.0923-15.889-30.848-32.802-6.1253-4.3608-13.12-8.6872-20.969-12.676-18.953-9.5873-42.147-16.258-64.439-24.89v-2e-6c-4.2987-1.6652-8.588-3.4336-12.865-5.3067-22.314-9.7734-42.083-21.429-59.422-33.707-10.599-7.5059-19.876-14.948-27.953-21.867-21.06-18.039-31.831-29.786-33.576-28.412z" opacity=".98"/> </g> <g transform="matrix(-1 0 0 1 197.86 -2.5407)"> <path d="m-151.94-3.7704c0.71187 2.1036-14.118 8.3687-37.46 23.286-5.6917 3.6374-11.716 7.7382-17.933 12.381-16.53 12.318-30.558 25.475-48.889 42.573 0 1e-6 -1e-5 4e-6 -1e-5 4e-6 -4.4054 4.1223-8.9288 8.3406-13.512 12.517-12.322 11.227-24.433 21.555-37.397 30.734-18.684 13.198-37.114 22.42-53.262 28.601-27.043 10.352-43.495 11.482-44.054 9.333-0.55906-2.1492 14.611-7.431 39.287-20.173 14.783-7.6337 31.512-17.493 48.706-30.629 12.002-9.1492 23.287-19.178 35.502-30.314 4.5331-4.1327 9.0423-8.2759 13.541-12.36 0-1e-6 1e-5 -2e-6 1e-5 -3e-6 18.21-16.587 34.368-30.352 52.276-41.767 6.9224-4.4011 13.645-8.1263 19.993-11.252 26.055-12.831 42.489-15.032 43.201-12.929z" opacity=".98"/> <path d="m-148.58 313.78c0.5579-2.1495-14.611-7.4311-39.287-20.173-14.783-7.6336-31.512-17.493-48.706-30.629-12.002-9.1492-23.287-19.178-35.502-30.314-4.5331-4.1327-9.0423-8.2759-13.541-12.36l-1e-5 -1e-5c-18.21-16.587-34.368-30.352-52.276-41.767-6.9224-4.4011-13.645-8.1263-19.993-11.252-26.055-12.831-42.489-15.032-43.201-12.929-0.71187 2.1036 14.118 8.3687 37.46 23.286 5.6917 3.6374 11.716 7.7382 17.933 12.381 16.53 12.318 30.558 25.475 48.889 42.573 0 0 0 1e-5 1e-5 1e-5 4.4054 4.1223 8.9289 8.3406 13.512 12.517 12.322 11.227 24.433 21.555 37.397 30.733 18.684 13.198 37.114 22.42 53.262 28.601 27.043 10.351 43.495 11.482 44.054 9.333z" opacity=".98"/> </g> </g> </g> </svg>